# xmcd
#
# Track frame offsets:
#	150
#	20558
#	38093
#	58751
#	86339
#	110522
#	128067
#	149213
#	166717
#	184374
#	207880
#	226722
#	251348
#	276513
#	299905
#
# Disc length: 4308 seconds
#
# Revision: 1
# Processed by: cddbd v1.5.1PL0 Copyright (c) Steve Scherf et al.
# Submitted via: CDex 1.50Beta5
#
DISCID=e110d20f
DTITLE=さまざまなアーティスト - LOVE Ballads
DYEAR=1900
DGENRE=
TTITLE0=夏の終わりのハーモニー
TTITLE1=砂浜
TTITLE2=Blue Moon Blue
TTITLE3=水族館の夜
TTITLE4=KAORI
TTITLE5=日付変更線
TTITLE6=秋の気配
TTITLE7=夏のクラクション
TTITLE8=Mr.サマータイム
TTITLE9=君と僕と彼女のこと
TTITLE10=LOVE※TEARS
TTITLE11=夏の
TTITLE12=JOY
TTITLE13=少年
TTITLE14=ほんの短い夏
EXTD=
EXTT0=
EXTT1=
EXTT2=
EXTT3=
EXTT4=
EXTT5=
EXTT6=
EXTT7=
EXTT8=
EXTT9=
EXTT10=
EXTT11=
EXTT12=
EXTT13=
EXTT14=
PLAYORDER=
